<?xml version="1.0" encoding="utf-8"?>
<!-- Generator: Adobe Illustrator 26.4.1, SVG Export Plug-In . SVG Version: 6.00 Build 0)  -->
<svg version="1.1" id="Layer_2" xmlns="http://www.w3.org/2000/svg" xmlns:xlink="http://www.w3.org/1999/xlink" x="0px" y="0px"
	 viewBox="0 0 1366 768" style="enable-background:new 0 0 1366 768;" xml:space="preserve">
<style type="text/css">
	
		.st0{fill-rule:evenodd;clip-rule:evenodd;fill:url(#SVGID_1_);stroke:url(#SVGID_00000116956117873678985560000014289403166803231881_);stroke-miterlimit:10;}
	
		.st1{fill-rule:evenodd;clip-rule:evenodd;fill:url(#SVGID_00000056422321551391390580000014501433765295436190_);stroke:url(#SVGID_00000144304655172703838710000016860230170580044163_);stroke-miterlimit:10;}
	
		.st2{fill:url(#SVGID_00000015351373257623898950000014982869733084498307_);stroke:url(#SVGID_00000127733842601203133500000001411165431168639881_);stroke-miterlimit:10;}
	.st3{fill:url(#SVGID_00000059298657349064933780000003610889419244960385_);}
	.st4{opacity:0.7;}
	.st5{fill:#FFFFFF;}
	.st6{fill:none;stroke:#FFFFFF;stroke-width:0;}
	.st7{fill:none;}
</style>
<g id="lock">
	<linearGradient id="SVGID_1_" gradientUnits="userSpaceOnUse" x1="785.1569" y1="171.5842" x2="900.3999" y2="205.2887">
		<stop  offset="0" style="stop-color:#93278F"/>
		<stop  offset="0.0194" style="stop-color:#95288D"/>
		<stop  offset="0.6858" style="stop-color:#CD484C"/>
		<stop  offset="1" style="stop-color:#E35433"/>
	</linearGradient>
	
		<linearGradient id="SVGID_00000032635654342775380180000003480972905073700747_" gradientUnits="userSpaceOnUse" x1="776.1264" y1="200.7517" x2="897.197" y2="200.7517">
		<stop  offset="0" style="stop-color:#93278F"/>
		<stop  offset="0.0194" style="stop-color:#95288D"/>
		<stop  offset="0.6858" style="stop-color:#CD484C"/>
		<stop  offset="1" style="stop-color:#E35433"/>
	</linearGradient>
	
		<path style="fill-rule:evenodd;clip-rule:evenodd;fill:url(#SVGID_1_);stroke:url(#SVGID_00000032635654342775380180000003480972905073700747_);stroke-miterlimit:10;" d="
		M845.52,219.66c-6.99,0-23.93-7.2-23.93-14.19l-44.97-40.68c0-6.99,5.72-12.72,12.72-12.72l0,0h94.64
		c6.99,0,12.72,5.72,12.72,12.72v71.94c0,6.99-5.72,12.72-12.72,12.72l-26.29-18.03"/>
	
		<linearGradient id="SVGID_00000070831191412726764430000018218950181035602872_" gradientUnits="userSpaceOnUse" x1="791.7662" y1="124.3425" x2="883.3542" y2="124.3425">
		<stop  offset="0" style="stop-color:#93278F"/>
		<stop  offset="0.0194" style="stop-color:#95288D"/>
		<stop  offset="0.6858" style="stop-color:#CD484C"/>
		<stop  offset="1" style="stop-color:#E35433"/>
	</linearGradient>
	
		<linearGradient id="SVGID_00000146488783674256034910000006969262121954390666_" gradientUnits="userSpaceOnUse" x1="791.2662" y1="124.3425" x2="883.8542" y2="124.3425">
		<stop  offset="0" style="stop-color:#93278F"/>
		<stop  offset="0.0194" style="stop-color:#95288D"/>
		<stop  offset="0.6858" style="stop-color:#CD484C"/>
		<stop  offset="1" style="stop-color:#E35433"/>
	</linearGradient>
	
		<path style="fill-rule:evenodd;clip-rule:evenodd;fill:url(#SVGID_00000070831191412726764430000018218950181035602872_);stroke:url(#SVGID_00000146488783674256034910000006969262121954390666_);stroke-miterlimit:10;" d="
		M837.56,96.96L837.56,96.96c25.19,0,45.79,20.61,45.79,45.79v8.97h-17.02v-8.97c0-15.83-12.95-28.78-28.78-28.78l0,0
		c-15.83,0-28.78,12.95-28.78,28.78v8.97h-17.02v-8.97C791.77,117.57,812.37,96.96,837.56,96.96L837.56,96.96z"/>
</g>
<linearGradient id="SVGID_00000080182130489183321830000002469695413863717053_" gradientUnits="userSpaceOnUse" x1="386.2739" y1="208.5086" x2="991.2866" y2="208.5086">
	<stop  offset="0" style="stop-color:#93278F"/>
	<stop  offset="0.2612" style="stop-color:#95288C"/>
	<stop  offset="0.4451" style="stop-color:#9E2D83"/>
	<stop  offset="0.6054" style="stop-color:#AB3473"/>
	<stop  offset="0.752" style="stop-color:#BF3F5D"/>
	<stop  offset="0.8881" style="stop-color:#D74C41"/>
	<stop  offset="1" style="stop-color:#F15A24"/>
</linearGradient>
<linearGradient id="SVGID_00000052811761304102267330000017148953273461804186_" gradientUnits="userSpaceOnUse" x1="385.6341" y1="208.6996" x2="991.9265" y2="208.6996">
	<stop  offset="0" style="stop-color:#93278F"/>
	<stop  offset="1" style="stop-color:#F15A24"/>
</linearGradient>
<polyline style="fill:url(#SVGID_00000080182130489183321830000002469695413863717053_);stroke:url(#SVGID_00000052811761304102267330000017148953273461804186_);stroke-miterlimit:10;" points="
	688.78,56.94 386.27,325.07 406.9,360.07 688.78,129.44 970.66,360.07 991.29,325.07 688.78,56.94 "/>
<linearGradient id="SVGID_00000111894840967037704320000014420271653605867958_" gradientUnits="userSpaceOnUse" x1="494.2403" y1="385.65" x2="998.7236" y2="552.189">
	<stop  offset="0" style="stop-color:#93278F"/>
	<stop  offset="1" style="stop-color:#F15A24"/>
</linearGradient>
<path style="fill:url(#SVGID_00000111894840967037704320000014420271653605867958_);" d="M688.78,138.21L423.15,356.34v317.51
	h143.13h245.01h143.13V356.34L688.78,138.21z M706.6,337.22c3.3-30.16,21.28-52.67,40.18-50.3c18.9,2.38,31.5,28.82,28.2,58.97
	c-3.3,30.16-21.28,52.67-40.18,50.3C715.89,393.82,703.29,367.49,706.6,337.22z M647.32,286.41c18.9-1.65,36.87,21.48,39.97,51.74
	c3.1,30.16-9.71,55.98-28.71,57.63c-18.9,1.65-36.87-21.59-39.97-51.74C615.5,313.88,628.31,288.06,647.32,286.41z M554.57,420.06
	c-8.68-26.65-1.96-52.36,14.77-57.53c16.83-5.06,37.39,12.39,46.06,39.04c8.57,26.65,1.96,52.36-14.87,57.53
	C583.69,464.16,563.14,446.7,554.57,420.06z M799.45,534.18c-1.55,6.2-4.34,10.84-7.44,14.87c-3.2,4.03-6.82,7.33-10.43,9.91
	c-3.72,2.48-7.33,4.23-12.5,4.75c-5.16,0.52-11.88-0.21-18.38-1.24c-6.51-1.03-12.7-2.38-19.21-3.82
	c-6.51-1.34-13.22-2.58-19.11-3.41c-5.89-0.72-10.95-1.03-15.6-1.24c-4.75-0.31-8.99-0.52-14.15,0s-11.26,1.76-16.01,3.3
	c-4.75,1.45-8.16,3.1-13.01,4.96c-4.85,1.86-11.15,3.72-16.94,4.54c-5.68,0.72-10.74,0.41-15.7-1.45
	c-4.96-1.86-9.91-5.06-14.25-8.78c-4.34-3.61-8.16-7.85-11.05-12.19c-2.89-4.34-4.96-8.88-5.78-13.84
	c-0.72-4.96-0.21-10.43,1.34-15.91c1.55-5.58,4.13-11.15,7.75-16.22c3.51-5.06,8.06-9.61,13.22-14.25
	c5.16-4.75,11.05-9.71,16.32-14.67c5.37-4.85,10.12-9.81,14.56-15.7c4.44-5.89,8.47-12.81,12.6-18.69
	c4.13-5.99,8.37-11.05,12.39-14.67c4.03-3.61,7.85-5.89,12.5-7.44s10.22-2.48,15.39-2.69c5.16-0.31,10.02,0.1,15.08,1.03
	c5.06,1.03,10.33,2.58,14.87,5.89c4.54,3.31,8.26,8.37,11.98,15.08c3.61,6.61,7.13,14.98,11.46,22.1c4.34,7.23,9.5,13.32,15.8,18.69
	c6.4,5.37,13.94,10.02,19.21,14.67c5.37,4.75,8.47,9.4,10.95,13.43c2.58,4.13,4.54,7.64,5.27,13.22
	C801.41,520.14,801,527.88,799.45,534.18z M832.81,428.11c-15.39,23.44-39.56,34.39-54.12,24.48c-14.46-9.81-13.84-36.87,1.55-60.21
	c15.39-23.44,39.56-34.5,54.12-24.58C848.82,377.71,848.2,404.67,832.81,428.11z"/>
<g id="circle">
	<g>
		<g>
			<g>
				<g>
					<g class="st4">
						<g>
							<g>
								<path class="st5" d="M766.57,616.36c-8.52,3.03-17.15,6.17-25.43,8.93c-2.21,0.68-4.42,1.22-6.6,1.71
									c-1.09,0.23-2.17,0.5-3.26,0.64c-1.09,0.15-2.17,0.29-3.25,0.42c-2.16,0.23-4.29,0.52-6.42,0.59
									c-2.13,0.07-4.25,0.13-6.36,0.2c-8.46,0.02-16.73-0.21-25.7,0.23c-11.27,0.66-22.46-1.12-33.34-3.94
									c-10.92-2.83-21.54-6.68-32.57-10.43c-20.21-6.98-39.92-17.45-57.11-31.59c-8.54-7.1-16.47-15.04-23.49-23.7l-2.58-3.29
									c-0.85-1.11-1.74-2.18-2.51-3.34l-4.72-6.89c-1.43-2.39-2.85-4.77-4.27-7.15c-0.73-1.18-1.33-2.43-1.97-3.66l-1.89-3.7
									c-4.57-9.37-8.39-18.92-11.47-28.59c-2.98-9.71-5.21-19.5-6.74-29.32c-1.58-9.81-2.19-19.67-2.19-29.44
									c-0.08-4.89,0.27-9.76,0.54-14.6c0.24-2.42,0.49-4.83,0.73-7.24c0.09-1.21,0.3-2.4,0.47-3.6l0.54-3.59
									c0.19-1.19,0.34-2.39,0.56-3.58l0.71-3.55c0.5-2.36,0.88-4.74,1.53-7.06l1.78-6.99l2.12-6.88
									c3.01-9.11,6.65-17.98,11.02-26.49c4.44-8.47,9.53-16.58,15.21-24.27c5.77-7.63,12.2-14.76,19.13-21.4
									c16.22-15.38,35.92-28.75,57.45-38.22c21.51-9.53,44.79-15.09,67.42-16.76c8.28-0.61,18.76-0.63,30.1,0.66
									c11.34,1.25,23.51,3.8,35.18,7.45c11.68,3.62,22.84,8.32,32.56,13.11c4.9,2.34,9.35,4.84,13.52,6.98
									c4.03,2.35,7.85,4.24,11.03,6.05l-2.97-2.11l-3.07-1.98l-3.06-2l-1.53-1.01l-1.58-0.94c-2.09-1.26-4.19-2.51-6.3-3.78
									c-2.15-1.17-4.31-2.35-6.47-3.52c-8.7-4.57-17.72-8.64-26.98-12.1c-2.33-0.82-4.66-1.65-6.99-2.47
									c-2.36-0.72-4.73-1.44-7.09-2.16c-1.17-0.39-2.37-0.69-3.57-0.99l-3.58-0.93c-1.2-0.29-2.38-0.67-3.58-0.9l-3.61-0.77
									l-3.6-0.78c-1.2-0.27-2.42-0.42-3.62-0.64c-1.21-0.2-2.42-0.41-3.62-0.61c-1.21-0.21-2.41-0.42-3.62-0.54
									c-2.42-0.3-4.84-0.6-7.25-0.89c-2.42-0.19-4.83-0.37-7.24-0.56c42.33-0.3,85.57,14.95,118.85,42.79
									c16.81,13.73,31.12,30.44,42.43,48.83c11.39,18.38,19.39,38.68,24.32,59.53c-2.19-9.79-5.04-19.41-8.59-28.74
									c-3.63-9.3-7.9-18.32-12.78-26.97l-3.77-6.43l-4.07-6.23l-1.01-1.56l-1.09-1.51l-2.18-3.02l-2.17-3.02l-2.31-2.91
									l-2.31-2.91c-0.76-0.98-1.53-1.95-2.37-2.86l-4.89-5.59c-1.68-1.82-3.43-3.57-5.13-5.36c-1.67-1.82-3.5-3.49-5.3-5.19
									c-28.68-27.22-65.35-45.56-104.25-51.89c-9.7-1.71-19.54-2.51-29.38-2.74c-4.93-0.19-9.85,0.03-14.78,0.19
									c-2.46,0.17-4.92,0.35-7.38,0.52c-2.46,0.19-4.9,0.55-7.35,0.81c-1.22,0.16-2.46,0.24-3.67,0.46l-3.65,0.59
									c-2.43,0.4-4.88,0.74-7.29,1.3c-2.41,0.52-4.84,0.98-7.24,1.54c-2.39,0.62-4.79,1.23-7.17,1.84
									c-9.51,2.67-18.86,5.95-27.96,9.87c-36.34,15.85-68.07,42.41-90.72,75.54c5.9-10.08,12.86-19.75,20.7-28.83
									c7.84-9.09,16.55-17.61,26.02-25.37c18.94-15.57,41.22-27.77,65.15-35.58c23.93-7.82,49.55-11.14,74.93-9.62
									c25.38,1.49,50.48,7.8,73.43,18.48c22.97,10.65,43.7,25.66,61,43.64c17.32,17.95,31.2,38.84,40.85,61.19
									c9.69,22.35,15.27,46.04,17.02,69.54c0.88,11.76,0.82,23.48-0.1,35.01c-0.3,2.87-0.49,5.76-0.85,8.62
									c-0.39,2.86-0.78,5.7-1.16,8.54c-0.51,2.82-1.01,5.63-1.52,8.43c-0.22,1.41-0.58,2.78-0.88,4.17
									c-0.31,1.39-0.62,2.77-0.93,4.15c-0.19,0.84-0.37,1.69-0.56,2.54c-0.22,0.84-0.45,1.69-0.68,2.53
									c-0.45,1.71-0.9,3.42-1.35,5.15c-0.42,1.74-0.96,3.44-1.48,5.15c-0.52,1.71-1.03,3.42-1.54,5.11
									c-0.47,1.72-1.12,3.33-1.66,4.98c-0.56,1.64-1.1,3.26-1.64,4.84c-1.1,3.16-2.3,6.11-3.3,8.93
									c4.63-10.57,8.39-21.63,11.42-32.94c3.02-11.31,5.23-22.92,6.53-34.72c2.66-23.57,1.56-47.92-3.59-71.69
									c-5.12-23.77-14.35-46.97-27.55-68.03c-13.18-21.05-30.27-39.98-50.31-55.36c-20.07-15.35-43.14-27.03-67.64-34.1
									c-24.49-7.09-50.36-9.57-75.73-7.28c-25.37,2.26-50.19,9.3-72.67,20.43c-11.25,5.56-21.91,12.11-31.85,19.48
									c-9.93,7.38-19.03,15.66-27.34,24.49c-1.91,2.03-3.84,4.04-5.61,6.21c-1.79,2.14-3.65,4.23-5.38,6.43l-5.1,6.68
									c-1.68,2.25-3.2,4.61-4.81,6.91c-6.24,9.35-11.81,19.22-16.51,29.55c-4.64,10.35-8.48,21.11-11.44,32.15
									c-0.69,2.77-1.46,5.53-2.06,8.33l-1.7,8.43c-0.49,2.83-0.88,5.67-1.32,8.51l-0.32,2.13l-0.22,2.14l-0.44,4.29
									c-4.62,45.84,7.01,93.91,33.08,133.32c13.72,21.68,31.56,40.88,52.19,56.45c21.24,15.9,45.64,27.82,71.38,34.75
									c25.73,6.96,52.77,8.94,79.05,5.83c11.67-1.31,25.51-4,39.52-8.48c14-4.47,28.09-10.87,40.34-18.44
									c12.26-7.56,22.72-16.14,30.05-24.24c0.47-0.5,0.93-0.98,1.37-1.47c0.43-0.51,0.84-1.01,1.26-1.51
									c0.82-1,1.6-1.97,2.33-2.92c0.74-0.95,1.43-1.87,2.08-2.77c0.32-0.45,0.63-0.89,0.94-1.33c0.28-0.46,0.55-0.9,0.82-1.34
									c2.1-3.51,3.48-6.55,4-9c-2.64,2.37-5.25,4.9-7.9,7.46c-2.76,2.43-5.47,4.99-8.28,7.4c-1.44,1.17-2.87,2.34-4.3,3.5
									c-1.44,1.14-2.83,2.33-4.34,3.34c-1.48,1.04-2.96,2.06-4.43,3.04c-1.47,0.98-2.92,1.94-4.44,2.73
									c0.48-0.45,0.96-0.91,1.45-1.37c0.47-0.49,0.95-0.99,1.44-1.5c0.97-1,1.97-2.03,3-3.08c1.03-1.02,2.07-2.07,3.14-3.13
									c1.03-1.09,2.09-2.18,3.17-3.24c-1.13,0.89-2.3,1.78-3.49,2.67c-1.2,0.87-2.46,1.69-3.68,2.54
									c-2.46,1.68-4.76,3.49-6.89,5.13c1.74-1.39,3.38-2.97,4.7-4.38c1.32-1.41,2.32-2.67,2.68-3.62
									c-1.44,0.92-2.96,2.03-4.49,3.25c-0.76,0.62-1.53,1.25-2.31,1.88c-0.79,0.62-1.58,1.24-2.36,1.85
									c-1.55,1.24-3.05,2.5-4.44,3.65c-1.38,1.16-2.72,2.1-3.81,2.93c-1.29,0.93-4.75,3.89-8.64,6.45
									c-0.97,0.65-1.94,1.31-2.88,1.95c-0.95,0.63-1.88,1.23-2.78,1.71c-1.78,0.99-3.33,1.75-4.34,2.07
									c9.28-6.26,20.4-14.51,26.16-21.53c-3.16,1.85-6.11,4.02-9.39,5.48c0.83-0.77,1.93-1.59,3.08-2.51
									c1.14-0.94,2.35-1.94,3.51-2.89c1.15-0.96,2.24-1.88,3.11-2.71c0.88-0.82,1.47-1.64,1.74-2.22
									c-1.79,1.36-3.66,2.5-5.42,3.75c-0.89,0.61-1.77,1.23-2.65,1.83c-0.88,0.62-1.76,1.23-2.68,1.77
									c-1.82,1.13-3.66,2.27-5.55,3.4c-0.47,0.28-0.95,0.57-1.43,0.85c-0.49,0.26-0.99,0.52-1.49,0.78
									c-1.01,0.51-2.04,1.02-3.08,1.54c-1.71,0.81-3.35,1.68-5.03,2.38c-1.67,0.72-3.32,1.43-4.95,2.14l-2.43,1.1
									c-0.81,0.37-1.64,0.68-2.46,1.03c-1.64,0.69-3.28,1.42-4.92,2.21c7.89-3.77,18.07-9.46,22.44-13.8
									c-1.87,0.68-3.7,1.53-5.51,2.47c-0.91,0.47-1.8,0.96-2.7,1.45c-0.91,0.46-1.83,0.91-2.74,1.37
									c0.38-0.37,0.56-0.68,0.56-0.92c-1.64,0.74-3.92,1.44-5.6,2.26c-0.16-0.27-0.65-0.38-0.45-0.82
									c0.04,0.23,0.11,0.44,0.16,0.66"/>
								<path class="st5" d="M787.28,630.79c-2.15,1.16-4.62,2.24-7.19,3.39c-1.29,0.57-2.6,1.15-3.92,1.74
									c-1.32,0.6-2.7,1.06-4.06,1.59c-1.36,0.5-2.72,1-4.05,1.5c-1.33,0.49-2.65,0.97-3.95,1.33c-2.6,0.77-5.05,1.45-7.21,1.99"/>
								<path class="st6" d="M545.51,297.99c0,0,1.4-1.39,4.04-4.01c1.36-1.28,3.09-2.79,5.1-4.61c1.01-0.9,2.1-1.88,3.26-2.92
									c1.21-0.98,2.49-2.03,3.85-3.14c1.36-1.1,2.78-2.29,4.31-3.49c1.56-1.15,3.2-2.36,4.92-3.62c3.36-2.6,7.29-5.02,11.38-7.77
									c8.39-5.19,18.21-10.59,29.52-15.4c11.29-4.81,24.05-9.02,38.01-11.95c13.95-2.94,29.07-4.61,44.89-4.51
									c15.81,0.17,32.28,2.21,48.76,6.26c2.04,0.57,4.1,1.13,6.15,1.7c1.03,0.28,2.06,0.57,3.09,0.85l3.06,1
									c2.04,0.67,4.09,1.34,6.14,2.02c2.02,0.77,4.05,1.54,6.08,2.32l3.05,1.16l3,1.31c2,0.88,4.01,1.76,6.02,2.64
									c1.97,0.97,3.94,1.95,5.92,2.93l2.97,1.47l2.9,1.61c1.94,1.08,3.87,2.16,5.82,3.25c1.89,1.18,3.78,2.35,5.68,3.53l2.84,1.77
									l2.76,1.91c1.84,1.28,3.68,2.55,5.53,3.83c1.78,1.37,3.57,2.74,5.35,4.11l2.68,2.06l2.58,2.18l5.16,4.39
									c1.67,1.52,3.3,3.09,4.96,4.63c13.23,12.37,24.64,26.74,34.26,42.09c19,30.89,29.49,66.35,31.21,100.36
									c0.07,1.06,0.14,2.12,0.21,3.18c0.02,1.06,0.04,2.12,0.06,3.17c0.04,2.12,0.09,4.22,0.13,6.32c-0.02,2.1-0.1,4.19-0.14,6.27
									c-0.05,2.08-0.07,4.16-0.25,6.22c-0.14,2.06-0.28,4.12-0.42,6.16l-0.1,1.53l-0.17,1.52c-0.11,1.01-0.23,2.02-0.34,3.03
									c-0.24,2.02-0.43,4.03-0.71,6.02c-0.31,1.99-0.63,3.97-0.94,5.93c-0.15,0.99-0.31,1.97-0.46,2.95
									c-0.16,0.98-0.38,1.94-0.57,2.91c-0.39,1.93-0.78,3.86-1.17,5.77c-0.34,1.93-0.89,3.78-1.33,5.66
									c-0.46,1.87-0.92,3.74-1.38,5.59c-1.07,3.65-2.1,7.27-3.21,10.82c-0.6,1.76-1.2,3.5-1.79,5.23
									c-0.61,1.72-1.12,3.48-1.82,5.15c-5.05,13.54-10.95,25.83-17.03,36.78c-6.13,10.93-12.42,20.48-18.04,28.93"/>
							</g>
							<path class="st6" d="M749.15,253.39c0,0,0.17,0.05,0.5,0.15c0.33,0.09,0.82,0.24,1.45,0.47c1.27,0.44,3.15,1.09,5.59,1.93
								c4.88,1.68,11.89,4.47,20.46,8.47c8.53,4.1,18.52,9.67,29.11,17.09c10.58,7.42,21.71,16.76,32.41,28.12
								c10.6,11.43,20.74,24.86,29.33,40.1c1.04,1.93,2.08,3.86,3.13,5.81l0.79,1.46l0.72,1.5c0.48,1,0.96,2,1.45,3.01
								c2.03,3.98,3.69,8.17,5.5,12.34c0.85,2.11,1.6,4.26,2.42,6.4l1.2,3.23l1.06,3.28c0.69,2.2,1.48,4.38,2.1,6.62
								c0.62,2.24,1.24,4.49,1.86,6.74c0.33,1.12,0.59,2.26,0.84,3.4l0.78,3.43l0.79,3.44c0.25,1.15,0.43,2.31,0.65,3.47
								c0.41,2.32,0.89,4.64,1.25,6.98l0.98,7.05l0.25,1.77l0.17,1.78l0.34,3.56l0.34,3.57c0.11,1.19,0.13,2.38,0.21,3.58
								c0.11,2.39,0.28,4.78,0.35,7.17c0.02,2.4,0.04,4.8,0.06,7.19c-0.1,19.19-2.6,38.45-7.34,56.84"/>
						</g>
					</g>
				</g>
			</g>
		</g>
	</g>
	<g>
		<path class="st5" d="M695.29,639.31c-26,0-51.35-4.93-75.34-14.66c-24.84-10.07-47.12-24.87-66.23-43.98
			c-19.11-19.11-33.91-41.4-43.98-66.23c-9.73-23.99-14.66-49.34-14.66-75.34c0-26,4.93-51.35,14.66-75.34
			c10.07-24.84,24.87-47.12,43.98-66.23c19.11-19.11,41.4-33.91,66.23-43.98c23.99-9.73,49.34-14.66,75.34-14.66
			c26,0,51.35,4.93,75.34,14.66c24.84,10.07,47.12,24.87,66.23,43.98c19.11,19.11,33.91,41.4,43.98,66.23
			c9.73,23.99,14.66,49.34,14.66,75.34c0,26-4.93,51.35-14.66,75.34c-10.07,24.84-24.87,47.12-43.98,66.23
			c-19.11,19.11-41.4,33.91-66.23,43.98C746.64,634.38,721.29,639.31,695.29,639.31z M695.29,239.24
			c-53.38,0-103.57,20.79-141.32,58.54c-37.75,37.75-58.54,87.94-58.54,141.32c0,53.38,20.79,103.57,58.54,141.32
			c37.75,37.75,87.94,58.54,141.32,58.54c53.38,0,103.57-20.79,141.32-58.54c77.92-77.92,77.92-204.71,0-282.64
			C798.86,260.03,748.67,239.24,695.29,239.24z"/>
		<g>
			<path class="st7" d="M695.29,639.31c-26,0-51.35-4.93-75.34-14.66c-24.84-10.07-47.12-24.87-66.23-43.98
				c-19.11-19.11-33.91-41.4-43.98-66.23c-9.73-23.99-14.66-49.34-14.66-75.34c0-26,4.93-51.35,14.66-75.34
				c10.07-24.84,24.87-47.12,43.98-66.23c19.11-19.11,41.4-33.91,66.23-43.98c23.99-9.73,49.34-14.66,75.34-14.66
				c26,0,51.35,4.93,75.34,14.66c24.84,10.07,47.12,24.87,66.23,43.98c19.11,19.11,33.91,41.4,43.98,66.23
				c9.73,23.99,14.66,49.34,14.66,75.34c0,26-4.93,51.35-14.66,75.34c-10.07,24.84-24.87,47.12-43.98,66.23
				c-19.11,19.11-41.4,33.91-66.23,43.98C746.64,634.38,721.29,639.31,695.29,639.31z M695.29,239.24
				c-53.38,0-103.57,20.79-141.32,58.54c-37.75,37.75-58.54,87.94-58.54,141.32c0,53.38,20.79,103.57,58.54,141.32
				c37.75,37.75,87.94,58.54,141.32,58.54c53.38,0,103.57-20.79,141.32-58.54c77.92-77.92,77.92-204.71,0-282.64
				C798.86,260.03,748.67,239.24,695.29,239.24z"/>
			<g>
				<g>
					<g class="st4">
						<g>
							<g>
								<path class="st5" d="M613.33,246.9c-2.3,0.92-4.59,1.9-6.86,2.91c-2.24,1.07-4.43,2.26-6.61,3.42
									c-1.08,0.6-2.18,1.16-3.23,1.79c-1.04,0.65-2.08,1.3-3.11,1.95c-2.04,1.32-4.09,2.57-6.01,3.96
									c-2.03,1.49-4.07,2.87-6.11,4.17c-0.51,0.32-1.02,0.65-1.53,0.97c-0.5,0.34-0.99,0.67-1.48,1.01
									c-0.99,0.66-1.98,1.31-2.97,1.95c-4.03,2.46-7.82,5.07-11.71,7.6c-7.54,5.29-14.99,10.9-21.12,18.71
									c-7.74,9.69-15.67,18.96-22.97,29.04c-7.28,10.05-13.87,20.95-18.25,33.16c-8.02,22.38-12.1,46.25-12.45,69.99
									c-0.29,23.75,2.65,47.39,8.5,70.24c2.77,10.76,6.41,21.2,10.81,31.22c1.16,2.48,2.31,4.96,3.46,7.43
									c1.23,2.43,2.53,4.82,3.8,7.23c1.22,2.43,2.69,4.72,4.06,7.05l2.08,3.49c0.71,1.15,1.49,2.26,2.23,3.39l2.25,3.37
									c0.75,1.12,1.48,2.26,2.3,3.32c1.61,2.17,3.21,4.33,4.81,6.49c1.64,2.13,3.39,4.17,5.08,6.25c1.67,2.11,3.48,4.07,5.28,6.06
									c3.52,4.04,7.38,7.75,11.15,11.54c3.96,3.59,7.85,7.26,12.04,10.58c33.03,27.14,74.12,44.34,118.59,49.12
									c12.92,1.45,26.49,1.59,40.28,0.33c13.79-1.26,27.78-4.01,41.43-8.28c13.65-4.26,26.95-10.06,39.38-17.17
									c12.43-7.1,23.98-15.52,34.29-24.82c7.52-6.81,16.69-15.7,25.6-26.5c8.91-10.77,17.49-23.45,24.38-36.82
									c6.92-13.35,12.15-27.34,15.38-40.17c3.31-12.83,4.45-24.49,4.39-33.15c-1.1,11.48-3.32,23.03-6.62,34.34
									c-3.31,11.31-7.85,22.33-13.23,32.84c-5.39,10.51-11.7,20.51-18.84,29.68c-1.7,2.35-3.6,4.55-5.45,6.76
									c-1.86,2.21-3.68,4.43-5.67,6.49c-1.96,2.08-3.88,4.19-5.87,6.2c-2.04,1.96-4.07,3.92-6.1,5.86
									c17.07-17.71,31.21-38.59,41.45-61.3c10.19-22.74,16.25-47.36,17.94-72.15c3.58-49.61-11.74-99.84-40.85-137.1
									c1.66,2.21,3.36,4.4,4.87,6.72c1.53,2.3,3.13,4.58,4.6,6.92l4.28,7.14c1.41,2.39,2.64,4.89,3.96,7.33
									c5.08,9.89,9.44,20.19,12.85,30.82c6.71,21.28,10.12,43.7,9.54,66.05c-0.27,11.16-1.29,22.32-3.44,33.27
									c-2.1,10.95-5.06,21.71-8.84,32.15c-7.75,20.81-18.75,40.32-32.65,57.21l-2.61,3.16l-1.31,1.58
									c-0.45,0.52-0.92,1.01-1.37,1.52l-5.53,6.01c-1.89,1.95-3.87,3.82-5.8,5.72c-0.98,0.93-1.91,1.92-2.93,2.81l-3.04,2.68
									c-3.98,3.65-8.28,6.92-12.5,10.25c-2.19,1.56-4.37,3.11-6.56,4.67l-1.64,1.16l-1.69,1.08l-3.38,2.15
									c-18.04,11.44-37.8,19.57-57.9,24.41c-40.3,9.66-81.92,5.39-116.59-9.43c20.74,7.17,43.69,11.01,67.44,10.71
									c23.74-0.26,48.26-5.05,71.51-14.63c23.26-9.55,45.16-23.98,63.69-42.35c18.57-18.32,33.69-40.67,43.72-65.24
									c10.07-24.54,15.07-51.2,14.67-77.55c-0.36-26.36-6.11-52.37-16.46-75.75c-5.16-11.7-11.45-22.74-18.66-32.91
									c-7.24-10.15-15.4-19.41-24.18-27.67c-8.78-8.26-18.19-15.53-27.98-21.72c-9.77-6.22-20.02-11.19-30.3-15.14
									c-1.57-0.58-3.11-1.26-4.75-1.76c-1.62-0.52-3.26-1.04-4.89-1.57c-3.24-1.11-6.62-1.86-9.88-2.68
									c-6.55-1.54-12.92-2.53-18.41-2.99c21.22,2.71,42.95,10.23,63.13,22.15c10.08,5.98,19.78,13.05,28.78,21.17
									c8.98,8.15,17.31,17.29,24.71,27.31c14.83,20.02,25.84,43.59,31.71,68.69c5.91,25.08,6.71,51.63,2.27,77.27
									c-4.4,25.65-14.06,50.35-28,71.96c-13.88,21.67-32.11,40.1-52.53,54.34c-20.44,14.26-43.21,24.17-66.29,29.51
									c-11.54,2.69-23.16,4.26-34.63,4.82c-11.48,0.52-22.82-0.01-33.82-1.39l-3.79-0.46c-1.26-0.19-2.51-0.43-3.76-0.63
									l-3.75-0.65l-1.87-0.32c-0.62-0.12-1.24-0.27-1.86-0.41l-7.42-1.65l-7.32-2.01c-9.7-2.86-19.15-6.43-28.26-10.69
									c-9.11-4.27-17.79-9.37-26.07-14.99c-4.18-2.76-8.12-5.86-12.08-8.91l-5.74-4.83c-0.98-0.78-1.87-1.66-2.79-2.5l-2.75-2.55
									c-7.26-6.87-14.08-14.21-20.23-22.07c-6.12-7.88-11.65-16.19-16.54-24.85c-4.93-8.65-9.04-17.75-12.5-27.08
									c-3.44-9.34-6.26-18.94-8.24-28.74c-3.7-21.4-3.85-43.55-0.36-64.93c3.58-21.95,11.28-43.16,22.35-62.42
									c11.07-19.26,25.61-36.57,42.52-51.06c7.52-6.41,17.12-13.37,27.86-19.61c10.73-6.27,22.61-11.78,34.22-16.06
									c23.19-8.83,45.17-12.36,53.24-18.04c-3.39,0-6.87,0.05-10.37,0.26c-1.75,0.17-3.51,0.34-5.27,0.51
									c-1.76,0.2-3.52,0.31-5.26,0.61c-6.99,0.98-13.85,2.2-20.28,3.22c2.28-1.09,4.79-2.08,7.43-3.07
									c1.32-0.5,2.68-0.99,4.07-1.47c1.39-0.45,2.82-0.8,4.26-1.17c-1.4,0.17-2.83,0.35-4.28,0.52c-1.44,0.24-2.89,0.47-4.33,0.71
									c-1.44,0.25-2.86,0.51-4.24,0.81c-1.38,0.3-2.69,0.75-3.93,1.18c1.03-0.39,2.06-0.79,3.05-1.17c1-0.36,1.97-0.7,2.85-1.06
									c1.77-0.71,3.2-1.43,3.94-2.14c-1.7,0.22-3.55,0.59-5.45,1.05c-0.47,0.12-0.95,0.24-1.43,0.36
									c-0.47,0.15-0.95,0.3-1.43,0.45c-0.95,0.32-1.9,0.64-2.83,0.96c-1.87,0.66-3.68,1.32-5.33,1.97
									c-1.63,0.71-3.11,1.35-4.35,1.89c-0.72,0.31-2.08,0.94-3.77,1.72c-1.68,0.81-3.65,1.89-5.66,2.89c-1,0.5-2.02,1-3,1.48
									c-0.98,0.47-1.9,1.01-2.78,1.44c-1.75,0.88-3.25,1.55-4.23,1.81c2.26-1.42,4.66-3.01,7.2-4.44c2.58-1.41,5.2-2.85,7.78-4.26
									c2.63-1.3,5.22-2.6,7.66-3.88c2.44-1.26,4.76-2.33,6.78-3.47c-1.84,0.37-3.66,0.8-5.47,1.21c-1.81,0.43-3.57,0.95-5.37,1.3
									c1.02-0.55,2.32-1.13,3.72-1.73c1.4-0.6,2.94-1.08,4.39-1.63c2.92-1.04,5.56-2.16,6.59-2.98c-2.32,0.46-4.54,1.11-6.74,1.67
									c-1.1,0.3-2.18,0.59-3.27,0.89c-1.09,0.28-2.14,0.68-3.22,1.01c-2.14,0.7-4.29,1.39-6.49,2.07
									c-2.18,0.74-4.4,1.55-6.73,2.29c-0.94,0.3-1.87,0.61-2.8,0.9c-0.92,0.31-1.81,0.67-2.7,1c-1.78,0.68-3.52,1.35-5.26,2.02
									c-1.75,0.65-3.41,1.48-5.08,2.28c-1.67,0.82-3.33,1.67-5,2.58c7.74-4.81,18.94-9.76,24.46-13.4
									c-2.09,0.46-4.18,1.1-6.26,1.83c-2.1,0.68-4.09,1.69-6.11,2.56c0.43-0.37,0.65-0.68,0.67-0.93
									c-1.81,0.73-4.32,1.39-6.17,2.23c-0.17-0.27-0.7-0.36-0.46-0.82c0.04,0.23,0.1,0.44,0.16,0.66"/>
								<path class="st5" d="M633.16,262.35c-2.03,0.7-4.2,1.67-6.51,2.56c-1.14,0.47-2.33,0.9-3.49,1.41
									c-1.16,0.52-2.33,1.04-3.49,1.56c-4.72,1.95-9.16,4.26-12.83,5.73"/>
								<path class="st6" d="M689.44,633c0,0,1.86,0.1,5.37,0.3c1.76,0.06,3.93,0.03,6.5,0.05c1.28,0,2.67,0.04,4.14-0.01
									c1.48-0.07,3.05-0.14,4.71-0.22c1.66-0.09,3.42-0.12,5.26-0.28c1.84-0.18,3.76-0.36,5.77-0.56c1.01-0.1,2.03-0.2,3.08-0.3
									c1.04-0.15,2.1-0.31,3.19-0.47c2.16-0.33,4.42-0.62,6.74-1.02c9.26-1.67,19.69-4.24,30.8-8.19
									c11.11-3.95,22.9-9.34,34.7-16.5c11.8-7.15,23.6-16.07,34.7-26.78c11.07-10.72,21.28-23.34,30.03-37.45
									c1.15-1.73,2.14-3.56,3.17-5.38c1.02-1.83,2.08-3.64,3.07-5.49c0.94-1.88,1.89-3.77,2.83-5.67
									c0.47-0.95,0.96-1.89,1.41-2.85l1.28-2.92c0.85-1.95,1.7-3.91,2.56-5.88c0.76-2,1.52-4.01,2.29-6.03
									c0.38-1.01,0.78-2.01,1.13-3.03l1-3.08c0.66-2.06,1.36-4.12,1.98-6.2c1.09-4.21,2.38-8.38,3.21-12.68
									c0.44-2.14,0.98-4.27,1.34-6.44c0.36-2.17,0.72-4.34,1.08-6.51c1.24-8.71,2.11-17.54,2.13-26.41l0.06-3.32
									c0.02-1.11-0.05-2.22-0.08-3.33l-0.21-6.65l-0.53-6.63c-0.1-1.1-0.16-2.21-0.29-3.31l-0.43-3.3c-1-8.81-2.88-17.5-5.1-26.02
									c-0.61-2.12-1.22-4.23-1.82-6.35c-0.6-2.11-1.39-4.17-2.08-6.25c-1.33-4.18-3.09-8.19-4.68-12.24c-0.85-2-1.8-3.96-2.7-5.93
									l-1.36-2.95c-0.46-0.98-0.99-1.92-1.49-2.88c-1-1.91-2-3.81-3-5.72c-1.06-1.87-2.18-3.7-3.26-5.54
									c-8.72-14.71-19.54-27.65-31.2-38.75c-11.65-11.15-24.46-20.15-37.35-27.19c-12.91-7.03-25.98-12.03-38.47-15.19
									c-12.51-3.14-24.41-4.55-35.16-4.59c-10.76-0.07-20.35,1.16-28.48,2.95"/>
							</g>
							<path class="st6" d="M876.16,538.73c0,0,0.38-0.64,1.11-1.88c0.76-1.22,1.73-3.12,2.99-5.58c0.63-1.23,1.34-2.6,2.11-4.11
								c0.79-1.5,1.48-3.21,2.32-5.01c0.8-1.82,1.72-3.75,2.58-5.85c0.82-2.12,1.69-4.37,2.61-6.73c3.49-9.54,7.02-21.33,9.34-35.03
								c2.32-13.68,3.47-29.26,2.4-45.91c-0.18-2.08-0.37-4.17-0.55-6.28c-0.1-1.05-0.19-2.11-0.29-3.18
								c-0.15-1.06-0.29-2.12-0.44-3.19c-0.3-2.13-0.6-4.28-0.9-6.44c-0.41-2.14-0.82-4.31-1.24-6.48
								c-0.21-1.09-0.42-2.18-0.63-3.27c-0.26-1.08-0.53-2.17-0.79-3.26c-0.54-2.17-1.08-4.36-1.62-6.56
								c-0.65-2.17-1.31-4.35-1.96-6.55c-0.34-1.09-0.64-2.2-1.02-3.29c-0.39-1.08-0.77-2.17-1.16-3.26
								c-2.97-8.75-6.88-17.35-11.25-25.78c-1.14-2.08-2.29-4.17-3.44-6.26c-1.19-2.07-2.5-4.08-3.74-6.12l-1.9-3.05l-2.06-2.96
								c-1.39-1.97-2.73-3.96-4.16-5.9c-2.98-3.8-5.86-7.66-9.13-11.23c-3.1-3.7-6.54-7.1-9.91-10.54c-1.7-1.7-3.53-3.28-5.29-4.92
								l-2.66-2.43c-0.89-0.8-1.85-1.54-2.77-2.31l-5.57-4.53c-1.93-1.41-3.86-2.82-5.78-4.23c-7.8-5.46-15.84-10.43-24.22-14.42
								l-3.1-1.54l-3.17-1.38c-2.12-0.9-4.2-1.84-6.32-2.67c-4.29-1.56-8.48-3.19-12.79-4.38"/>
						</g>
					</g>
				</g>
			</g>
			<g>
				<g>
					<g class="st4">
						<g>
							<g>
								<path class="st5" d="M620.27,615.01c-4.1-1.92-8.23-3.86-12.32-5.79c-4.09-1.92-8.12-3.89-12-5.87
									c-8.28-4.22-14.81-9.9-20.85-15.78c-6.05-5.92-11.63-12.07-18.37-18.03c-8.48-7.5-15.12-16.69-20.83-26.38
									c-5.73-9.72-10.47-19.99-15.6-30.46c-4.72-9.63-8.72-19.77-11.79-30.29c-3.07-10.52-5.25-21.42-6.29-32.49
									c-1.05-11.07-1.09-22.32,0.12-33.41c1.2-11.1,3.57-22.06,7.14-32.54c6.78-19.75,16.3-37.9,28.09-53.9
									c11.79-15.99,25.84-29.95,41.47-41.35c31.19-22.79,69.34-35.21,107.8-34.05c22.38,0.61,45.77,5.02,67.73,13.59
									c11,4.26,21.63,9.49,31.62,15.53c9.99,6.04,19.35,12.9,27.97,20.32c6.32,5.4,13.73,12.9,20.87,21.8
									c7.16,8.9,13.96,19.29,19.62,30.13c5.69,10.82,10.27,22.1,13.76,32.37c3.53,10.27,5.98,19.59,8.15,26.6
									c-1.67-9.57-3.97-19.1-6.85-28.52c-2.89-9.41-6.41-18.71-10.54-27.69c-8.23-17.99-19.13-34.73-31.95-49.24
									c15.09,14.91,27.65,32.6,36.81,52.11c9.18,19.52,15.03,40.7,17.05,62.31c1.02,10.8,1.19,21.72,0.41,32.54
									c-0.77,10.82-2.43,21.55-4.95,32.07c-2.53,10.51-5.95,20.81-10.11,30.76c-4.18,9.94-9.15,19.5-14.8,28.62
									c10.81-16.92,18.96-35.4,24.28-54.59c5.3-19.18,7.63-39.06,7.1-58.87c-0.56-19.79-4.02-39.4-10.31-58.09
									c-6.29-18.7-15.31-36.41-26.77-52.44c-11.46-16.02-25.26-30.46-40.82-42.58c-15.56-12.14-32.95-21.97-51.42-29.21
									c-18.46-7.24-38.01-11.81-57.88-13.61c-19.86-1.83-40.05-0.89-59.8,2.83c11.33-2.89,23.08-4.86,35.06-5.77
									c11.98-0.91,24.18-0.74,36.38,0.49c24.42,2.44,48.84,9.46,71.31,20.9c22.5,11.37,42.95,27.19,59.86,46.23
									c16.95,19,30.23,41.24,38.89,65.07c8.73,23.81,12.8,49.1,12.3,74.08c-0.44,24.98-5.49,49.55-14.45,72.23
									c-4.47,11.34-9.86,22.22-16.11,32.46c-6.25,10.25-13.32,19.88-21.02,28.83c-7.7,8.95-16.05,17.19-24.86,24.72
									c-8.82,7.51-18.15,14.23-27.78,20.22c-5.84,3.62-12.2,7.22-18.49,10.48c-6.28,3.26-12.5,6.17-17.93,8.62
									c21.46-8.58,42.08-20.26,60.61-35.15c18.51-14.87,34.99-32.85,48.22-53.29c13.23-20.43,23.04-43.43,28.65-67.67
									c5.59-24.23,6.84-49.73,3.52-74.8c-3.33-25.06-11.39-49.68-23.69-72.04c-12.3-22.37-28.94-42.37-48.46-58.75
									c-19.52-16.41-42.13-28.92-65.9-36.97c-11.89-4.03-24.09-6.95-36.34-8.72c-12.26-1.77-24.54-2.43-36.68-2.06
									c-22.29,0.7-44.71,5.06-65.94,13.06c-21.26,7.94-41.41,19.55-59.14,34.28c-17.71,14.69-33.25,32.38-45.34,52.44
									c-12.11,20.03-20.84,42.18-25.55,65.35c-2.85,12.51-4.53,25.35-5.03,38.24c-0.48,12.88,0.18,25.84,2.02,38.65
									c1.88,13.14,5.01,26.15,9.34,38.75c4.34,12.59,9.87,24.8,16.51,36.38c6.64,11.58,14.4,22.53,23.13,32.58
									c8.72,10.06,18.32,19.25,28.71,27.48c9.22,7.29,20.89,15.26,34.01,21.97c13.09,6.74,27.56,12.18,41.58,15.51
									c14.02,3.37,27.52,4.59,38.43,4.11c10.93-0.44,19.25-2.55,23.45-5.35c-7.09-0.2-14.57-0.33-21.97-0.92
									c-7.4-0.58-14.72-1.63-21.32-3.44c5.27,0.11,11.29-0.13,17.35-0.06c-5.71-0.67-11.91-2.12-17.27-2.63
									c4.47,0.35,9.03,0.44,10.88-0.45c-3.35-0.68-7.46-1.12-11.42-1.51c-3.96-0.42-7.78-0.78-10.49-1.18
									c-1.58-0.22-6.09-0.69-10.68-1.56c-4.6-0.81-9.25-2.03-11.13-3.02c5.5,1.05,11.68,2.12,17.62,2.75
									c5.94,0.65,11.64,0.86,16.14,0.53c-1.79-0.42-3.57-0.84-5.33-1.26c-1.76-0.46-3.51-0.9-5.19-1.51
									c2.27,0.09,5.5,0.58,8.49,0.84c2.98,0.31,5.72,0.35,6.93-0.06c-8.84-1.61-16.79-2.88-25.66-5.94
									c-7.18-2.49-13.44-5.21-20.29-7.74c4.17,1.35,8.99,3,13.61,4.15c4.61,1.17,8.96,1.97,12.07,1.93
									c-3.63-1.59-7.63-2.71-11.51-3.96c0.53,0.01,0.87-0.09,1.05-0.26c-1.68-0.64-3.81-1.72-5.56-2.39
									c0.07-0.31-0.19-0.74,0.27-0.9c-0.13,0.19-0.24,0.38-0.35,0.58"/>
								<path class="st5" d="M624.71,639.9c-4.63-1.56-10.17-3.62-15.48-5.98c-5.32-2.32-10.37-5.01-14.17-7.37"/>
								<path class="st6" d="M689.15,233.18c0,0,0.49,0,1.45,0c0.96,0.02,2.38,0.04,4.25,0.07c3.72,0.13,9.21,0.32,16.19,1.04
									c6.98,0.73,15.48,1.91,25.11,4.11c9.63,2.17,20.4,5.37,31.8,9.95c11.39,4.58,23.41,10.63,35.39,18.41
									c11.96,7.79,23.83,17.35,34.93,28.64c11.07,11.3,21.4,24.33,30.09,38.93c8.73,14.58,15.8,30.68,20.82,47.71
									c10.05,34.05,11.15,71.84,2.7,107.14c-4.17,17.66-10.68,34.64-18.99,50.35c-8.34,15.71-18.54,30.1-29.92,42.79
									c-11.34,12.72-23.86,23.77-36.82,33.08c-12.98,9.29-26.4,16.81-39.53,22.83c-13.14,6.03-26.03,10.53-38.09,13.96
									c-6.03,1.72-11.85,3.17-17.41,4.44c-5.56,1.24-10.85,2.3-15.83,3.27"/>
							</g>
							<path class="st6" d="M864.87,345.76c0,0,0.32,0.62,0.93,1.82c0.64,1.19,1.48,2.99,2.62,5.31c2.2,4.67,5.3,11.56,8.44,20.51
								c3.16,8.93,6.33,19.94,8.56,32.69c2.25,12.74,3.47,27.24,2.98,42.85c-0.54,15.59-2.84,32.29-7.61,49.15
								c-4.74,16.86-11.82,33.87-21.3,50c-9.48,16.12-21.36,31.32-34.98,44.87c-13.61,13.55-29.05,25.4-45.43,35.05"/>
						</g>
					</g>
				</g>
			</g>
		</g>
	</g>
</g>
</svg>
